<svg width="44" height="44" viewBox="0 0 44 44" fill="none" xmlns="http://www.w3.org/2000/svg">
<path d="M40.3333 4.4H36.6667V2.93333C36.6667 2.15536 36.3576 1.40926 35.8075 0.859153C35.2574 0.309047 34.5113 0 33.7333 0C32.9554 0 32.2093 0.309047 31.6592 0.859153C31.109 1.40926 30.8 2.15536 30.8 2.93333V4.4H24.9333V2.93333C24.9333 2.15536 24.6243 1.40926 24.0742 0.859153C23.5241 0.309047 22.778 0 22 0C21.222 0 20.4759 0.309047 19.9258 0.859153C19.3757 1.40926 19.0667 2.15536 19.0667 2.93333V4.4H13.2V2.93333C13.2 2.15536 12.891 1.40926 12.3408 0.859153C11.7907 0.309047 11.0446 0 10.2667 0C9.4887 0 8.74259 0.309047 8.19249 0.859153C7.64238 1.40926 7.33333 2.15536 7.33333 2.93333V4.4H3.66667C2.69421 4.4 1.76158 4.78631 1.07394 5.47394C0.386308 6.16157 0 7.09421 0 8.06667V37.4C0 38.3725 0.386308 39.3051 1.07394 39.9927C1.76158 40.6804 2.69421 41.0667 3.66667 41.0667H24.2C24.3945 41.0667 24.581 40.9894 24.7185 40.8519C24.8561 40.7144 24.9333 40.5278 24.9333 40.3333C24.9333 40.1388 24.8561 39.9523 24.7185 39.8148C24.581 39.6773 24.3945 39.6 24.2 39.6H3.66667C3.08373 39.5983 2.52516 39.3659 2.11296 38.9537C1.70075 38.5415 1.46841 37.9829 1.46667 37.4V14.6667H42.5333V27.1333C42.5333 27.3278 42.6106 27.5144 42.7481 27.6519C42.8857 27.7894 43.0722 27.8667 43.2667 27.8667C43.4612 27.8667 43.6477 27.7894 43.7852 27.6519C43.9227 27.5144 44 27.3278 44 27.1333V8.06667C44 7.09421 43.6137 6.16157 42.9261 5.47394C42.2384 4.78631 41.3058 4.4 40.3333 4.4ZM32.2667 2.93333C32.2667 2.54435 32.4212 2.1713 32.6962 1.89624C32.9713 1.62119 33.3443 1.46667 33.7333 1.46667C34.1223 1.46667 34.4954 1.62119 34.7704 1.89624C35.0455 2.1713 35.2 2.54435 35.2 2.93333V7.33333C35.2 7.72232 35.0455 8.09537 34.7704 8.37042C34.4954 8.64548 34.1223 8.8 33.7333 8.8C33.3443 8.8 32.9713 8.64548 32.6962 8.37042C32.4212 8.09537 32.2667 7.72232 32.2667 7.33333V2.93333ZM20.5333 2.93333C20.5333 2.54435 20.6879 2.1713 20.9629 1.89624C21.238 1.62119 21.611 1.46667 22 1.46667C22.389 1.46667 22.762 1.62119 23.0371 1.89624C23.3121 2.1713 23.4667 2.54435 23.4667 2.93333V7.33333C23.4667 7.72232 23.3121 8.09537 23.0371 8.37042C22.762 8.64548 22.389 8.8 22 8.8C21.611 8.8 21.238 8.64548 20.9629 8.37042C20.6879 8.09537 20.5333 7.72232 20.5333 7.33333V2.93333ZM8.8 2.93333C8.8 2.54435 8.95452 2.1713 9.22958 1.89624C9.50463 1.62119 9.87768 1.46667 10.2667 1.46667C10.6557 1.46667 11.0287 1.62119 11.3038 1.89624C11.5788 2.1713 11.7333 2.54435 11.7333 2.93333V7.33333C11.7333 7.72232 11.5788 8.09537 11.3038 8.37042C11.0287 8.64548 10.6557 8.8 10.2667 8.8C9.87768 8.8 9.50463 8.64548 9.22958 8.37042C8.95452 8.09537 8.8 7.72232 8.8 7.33333V2.93333ZM42.5333 13.2H1.46667V8.06667C1.46841 7.48373 1.70075 6.92516 2.11296 6.51295C2.52516 6.10075 3.08373 5.86841 3.66667 5.86667H7.33333V7.33333C7.33333 8.1113 7.64238 8.85741 8.19249 9.40751C8.74259 9.95762 9.4887 10.2667 10.2667 10.2667C11.0446 10.2667 11.7907 9.95762 12.3408 9.40751C12.891 8.85741 13.2 8.1113 13.2 7.33333V5.86667H19.0667V7.33333C19.0667 8.1113 19.3757 8.85741 19.9258 9.40751C20.4759 9.95762 21.222 10.2667 22 10.2667C22.778 10.2667 23.5241 9.95762 24.0742 9.40751C24.6243 8.85741 24.9333 8.1113 24.9333 7.33333V5.86667H30.8V7.33333C30.8 8.1113 31.109 8.85741 31.6592 9.40751C32.2093 9.95762 32.9554 10.2667 33.7333 10.2667C34.5113 10.2667 35.2574 9.95762 35.8075 9.40751C36.3576 8.85741 36.6667 8.1113 36.6667 7.33333V5.86667H40.3333C40.9163 5.86841 41.4748 6.10075 41.887 6.51295C42.2992 6.92516 42.5316 7.48373 42.5333 8.06667V13.2Z" fill="white"/>
<path d="M20.5334 19.8002C20.5334 19.4112 20.3789 19.0381 20.1038 18.7631C19.8288 18.488 19.4557 18.3335 19.0667 18.3335H16.1334C15.7444 18.3335 15.3714 18.488 15.0963 18.7631C14.8213 19.0381 14.6667 19.4112 14.6667 19.8002V22.0002C14.6667 22.3891 14.8213 22.7622 15.0963 23.0373C15.3714 23.3123 15.7444 23.4668 16.1334 23.4668H19.0667C19.4557 23.4668 19.8288 23.3123 20.1038 23.0373C20.3789 22.7622 20.5334 22.3891 20.5334 22.0002V19.8002ZM16.1334 22.0002V19.8002H19.0667V22.0002H16.1334Z" fill="white"/>
<path d="M11.7334 19.8002C11.7334 19.4112 11.5788 19.0381 11.3038 18.7631C11.0287 18.488 10.6557 18.3335 10.2667 18.3335H7.33337C6.94438 18.3335 6.57133 18.488 6.29628 18.7631C6.02122 19.0381 5.8667 19.4112 5.8667 19.8002V22.0002C5.8667 22.3891 6.02122 22.7622 6.29628 23.0373C6.57133 23.3123 6.94438 23.4668 7.33337 23.4668H10.2667C10.6557 23.4668 11.0287 23.3123 11.3038 23.0373C11.5788 22.7622 11.7334 22.3891 11.7334 22.0002V19.8002ZM7.33337 22.0002V19.8002H10.2667V22.0002H7.33337Z" fill="white"/>
<path d="M36.6666 23.4668C37.0556 23.4668 37.4286 23.3123 37.7037 23.0373C37.9787 22.7622 38.1333 22.3891 38.1333 22.0002V19.8002C38.1333 19.4112 37.9787 19.0381 37.7037 18.7631C37.4286 18.488 37.0556 18.3335 36.6666 18.3335H33.7333C33.3443 18.3335 32.9712 18.488 32.6962 18.7631C32.4211 19.0381 32.2666 19.4112 32.2666 19.8002V22.0002C32.2666 22.3891 32.4211 22.7622 32.6962 23.0373C32.9712 23.3123 33.3443 23.4668 33.7333 23.4668H36.6666ZM33.7333 19.8002H36.6666V22.0002H33.7333V19.8002Z" fill="white"/>
<path d="M20.5334 26.4003C20.5334 26.0113 20.3789 25.6382 20.1038 25.3632C19.8288 25.0881 19.4557 24.9336 19.0667 24.9336H16.1334C15.7444 24.9336 15.3714 25.0881 15.0963 25.3632C14.8213 25.6382 14.6667 26.0113 14.6667 26.4003V28.6003C14.6667 28.9892 14.8213 29.3623 15.0963 29.6374C15.3714 29.9124 15.7444 30.0669 16.1334 30.0669H19.0667C19.4557 30.0669 19.8288 29.9124 20.1038 29.6374C20.3789 29.3623 20.5334 28.9892 20.5334 28.6003V26.4003ZM16.1334 28.6003V26.4003H19.0667V28.6003H16.1334Z" fill="white"/>
<path d="M11.7334 26.4003C11.7334 26.0113 11.5788 25.6382 11.3038 25.3632C11.0287 25.0881 10.6557 24.9336 10.2667 24.9336H7.33337C6.94438 24.9336 6.57133 25.0881 6.29628 25.3632C6.02122 25.6382 5.8667 26.0113 5.8667 26.4003V28.6003C5.8667 28.9892 6.02122 29.3623 6.29628 29.6374C6.57133 29.9124 6.94438 30.0669 7.33337 30.0669H10.2667C10.6557 30.0669 11.0287 29.9124 11.3038 29.6374C11.5788 29.3623 11.7334 28.9892 11.7334 28.6003V26.4003ZM7.33337 28.6003V26.4003H10.2667V28.6003H7.33337Z" fill="white"/>
<path d="M19.0667 31.5332H16.1334C15.7444 31.5332 15.3714 31.6877 15.0963 31.9628C14.8213 32.2378 14.6667 32.6109 14.6667 32.9999V35.1999C14.6667 35.5889 14.8213 35.9619 15.0963 36.237C15.3714 36.512 15.7444 36.6665 16.1334 36.6665H19.0667C19.4557 36.6665 19.8288 36.512 20.1038 36.237C20.3789 35.9619 20.5334 35.5889 20.5334 35.1999V32.9999C20.5334 32.6109 20.3789 32.2378 20.1038 31.9628C19.8288 31.6877 19.4557 31.5332 19.0667 31.5332ZM16.1334 35.1999V32.9999H19.0667V35.1999H16.1334Z" fill="white"/>
<path d="M24.9335 23.4668H27.8668C28.2558 23.4668 28.6288 23.3123 28.9039 23.0373C29.1789 22.7622 29.3335 22.3891 29.3335 22.0002V19.8002C29.3335 19.4112 29.1789 19.0381 28.9039 18.7631C28.6288 18.488 28.2558 18.3335 27.8668 18.3335H24.9335C24.5445 18.3335 24.1714 18.488 23.8964 18.7631C23.6213 19.0381 23.4668 19.4112 23.4668 19.8002V22.0002C23.4668 22.3891 23.6213 22.7622 23.8964 23.0373C24.1714 23.3123 24.5445 23.4668 24.9335 23.4668ZM24.9335 19.8002H27.8668V22.0002H24.9335V19.8002Z" fill="white"/>
<path d="M23.4668 28.6003C23.4668 28.9892 23.6213 29.3623 23.8964 29.6374C24.1714 29.9124 24.5445 30.0669 24.9335 30.0669C25.128 30.0669 25.3145 29.9897 25.452 29.8521C25.5895 29.7146 25.6668 29.5281 25.6668 29.3336C25.6668 29.1391 25.5895 28.9526 25.452 28.815C25.3145 28.6775 25.128 28.6003 24.9335 28.6003V26.4003H27.8668C28.0613 26.4003 28.2478 26.323 28.3853 26.1855C28.5229 26.0479 28.6001 25.8614 28.6001 25.6669C28.6001 25.4724 28.5229 25.2859 28.3853 25.1484C28.2478 25.0109 28.0613 24.9336 27.8668 24.9336H24.9335C24.5445 24.9336 24.1714 25.0881 23.8964 25.3632C23.6213 25.6382 23.4668 26.0113 23.4668 26.4003V28.6003Z" fill="white"/>
<path d="M10.2667 31.5332H7.33337C6.94438 31.5332 6.57133 31.6877 6.29628 31.9628C6.02122 32.2378 5.8667 32.6109 5.8667 32.9999V35.1999C5.8667 35.5889 6.02122 35.9619 6.29628 36.237C6.57133 36.512 6.94438 36.6665 7.33337 36.6665H10.2667C10.6557 36.6665 11.0287 36.512 11.3038 36.237C11.5788 35.9619 11.7334 35.5889 11.7334 35.1999V32.9999C11.7334 32.6109 11.5788 32.2378 11.3038 31.9628C11.0287 31.6877 10.6557 31.5332 10.2667 31.5332ZM7.33337 35.1999V32.9999H10.2667V35.1999H7.33337Z" fill="white"/>
<path d="M34.4667 24.9336C32.5812 24.9336 30.738 25.4927 29.1702 26.5402C27.6025 27.5878 26.3806 29.0767 25.659 30.8187C24.9375 32.5607 24.7487 34.4775 25.1165 36.3268C25.4844 38.176 26.3923 39.8747 27.7256 41.208C29.0589 42.5412 30.7575 43.4492 32.6068 43.817C34.4561 44.1849 36.3729 43.9961 38.1149 43.2745C39.8569 42.553 41.3458 41.3311 42.3933 39.7633C43.4409 38.1956 44 36.3524 44 34.4669C43.9971 31.9394 42.9917 29.5163 41.2045 27.7291C39.4173 25.9418 36.9942 24.9365 34.4667 24.9336ZM34.4667 42.5336C32.8712 42.5336 31.3116 42.0605 29.9851 41.1741C28.6585 40.2877 27.6246 39.0279 27.0141 37.5539C26.4035 36.0799 26.2438 34.458 26.555 32.8932C26.8663 31.3284 27.6345 29.8911 28.7627 28.7629C29.8908 27.6348 31.3282 26.8665 32.8929 26.5553C34.4577 26.244 36.0797 26.4037 37.5536 27.0143C39.0276 27.6248 40.2875 28.6588 41.1738 29.9853C42.0602 31.3119 42.5333 32.8715 42.5333 34.4669C42.5308 36.6055 41.6801 38.6559 40.1679 40.1681C38.6556 41.6803 36.6053 42.531 34.4667 42.5336Z" fill="white"/>
<path d="M38.7045 31.3929L33.0006 37.0967L30.4083 34.5037C30.27 34.3701 30.0848 34.2962 29.8925 34.2978C29.7002 34.2995 29.5163 34.3766 29.3803 34.5126C29.2444 34.6486 29.1672 34.8325 29.1656 35.0248C29.1639 35.217 29.2378 35.4023 29.3714 35.5406L32.4822 38.6521C32.6197 38.7896 32.8062 38.8668 33.0006 38.8668C33.1951 38.8668 33.3816 38.7896 33.5191 38.6521L39.7414 32.4298C39.875 32.2915 39.9489 32.1063 39.9473 31.914C39.9456 31.7217 39.8685 31.5378 39.7325 31.4018C39.5965 31.2658 39.4126 31.1887 39.2203 31.187C39.028 31.1854 38.8428 31.2593 38.7045 31.3929Z" fill="white"/>
</svg>
