<svg width="44" height="34" viewBox="0 0 44 34" fill="none" xmlns="http://www.w3.org/2000/svg">
<path d="M39.8773 0.5H4.12256C1.8444 0.5 -0.00244141 2.34676 -0.00244141 4.625V29.375C-0.00244141 31.6532 1.8444 33.5 4.12256 33.5H39.8773C42.1555 33.5 44.0023 31.6532 44.0023 29.375V4.625C44.0023 2.34676 42.1555 0.5 39.8773 0.5ZM42.6273 28.7637L29.6206 15.757L42.6273 7.46878V28.7637ZM4.12256 1.875H39.8773C41.3937 1.875 42.6273 3.10858 42.6273 4.625V5.8394L23.6965 17.903C22.672 18.5556 21.3635 18.5355 20.3624 17.8546L1.37256 4.94778V4.625C1.37256 3.10858 2.60628 1.875 4.12256 1.875ZM1.37256 6.60858L14.5627 15.5735L1.37256 28.7637V6.60858ZM39.8773 32.125H4.12256C2.98997 32.125 2.01613 31.4361 1.59524 30.4558L15.7027 16.3483L19.5903 18.9907C20.3369 19.4982 21.2003 19.7527 22.0651 19.7527C22.8868 19.7527 23.7099 19.5231 24.4344 19.0618L28.4511 16.5022L42.4046 30.4558C41.9837 31.4361 41.0099 32.125 39.8773 32.125Z" fill="white"/>
</svg>
