<svg width="40" height="40" viewBox="0 0 40 40" fill="none" xmlns="http://www.w3.org/2000/svg">
<path d="M39.3335 25.3272C36.8736 25.3272 34.8716 23.3253 34.8716 20.8654C34.8716 20.4967 34.5736 20.1987 34.205 20.1987C33.8363 20.1987 33.5383 20.4967 33.5383 20.8654C33.5383 24.0613 36.1376 26.6605 39.3335 26.6605C39.7021 26.6605 40.0001 26.3625 40.0001 25.9939C40.0001 25.6252 39.7015 25.3272 39.3335 25.3272Z" fill="white"/>
<path d="M38.8361 23.7659C39.2048 23.7659 39.5028 23.468 39.5028 23.0993C39.5028 22.7306 39.2048 22.4327 38.8361 22.4327C38.2455 22.4327 37.7662 21.9527 37.7662 21.3627C37.7662 20.994 37.4682 20.696 37.0995 20.696C36.7309 20.696 36.4329 20.994 36.4329 21.3627C36.4322 22.688 37.5102 23.7659 38.8361 23.7659Z" fill="white"/>
<path d="M13.3341 1.99467C15.7947 1.99467 17.796 3.9966 17.796 6.45652C17.796 6.82517 18.0946 7.12316 18.4626 7.12316C18.8306 7.12316 19.1293 6.82517 19.1293 6.45652C19.1293 3.26062 16.5294 0.661377 13.3341 0.661377C12.9661 0.661377 12.6675 0.959367 12.6675 1.32802C12.6675 1.69668 12.9655 1.99467 13.3341 1.99467Z" fill="white"/>
<path d="M13.1648 4.22255C13.1648 4.59121 13.4635 4.8892 13.8314 4.8892C14.4214 4.8892 14.9007 5.36918 14.9007 5.95916C14.9007 6.32782 15.1994 6.62581 15.5674 6.62581C15.9354 6.62581 16.234 6.32782 16.234 5.95916C16.234 4.63387 15.1561 3.55591 13.8314 3.55591C13.4635 3.55591 13.1648 3.8539 13.1648 4.22255Z" fill="white"/>
<path d="M29.383 25.2585C28.5324 24.7731 27.6518 24.6198 26.9025 24.8278C26.3398 24.9838 25.8812 25.3398 25.5718 25.8584C24.8919 26.6717 24.0479 27.6224 23.8439 27.7697C22.2659 28.839 21.0107 28.713 19.648 27.3504L11.991 19.694C10.6277 18.3307 10.5023 17.0754 11.5703 15.5001C11.7196 15.2935 12.6703 14.4501 13.4836 13.7695C14.0022 13.4602 14.3582 13.0015 14.5142 12.4389C14.7215 11.6902 14.5689 10.8096 14.0796 9.95163C13.9642 9.7543 11.219 5.10513 8.68973 3.76717C7.40577 3.08786 5.85316 3.32118 4.82586 4.34848L3.13325 6.03909C0.457337 8.715 -0.511297 11.7476 0.252678 15.0521C0.88999 17.8067 2.74726 20.7379 5.77383 23.7638L15.5768 33.5675C19.418 37.4087 23.0819 39.338 26.4418 39.338C28.9091 39.338 31.213 38.2967 33.3022 36.2081L34.9935 34.5168C36.0208 33.4895 36.2548 31.9369 35.5748 30.6529C34.2362 28.123 29.5877 25.3784 29.383 25.2585ZM34.0509 33.5742L32.3596 35.2655C27.9804 39.6433 22.6513 38.7553 16.5201 32.6249L6.71646 22.8212C3.86922 19.974 2.13195 17.2587 1.55197 14.7521C0.888656 11.8849 1.71463 9.34432 4.07588 6.9824L5.76716 5.29112C6.14515 4.9138 6.64246 4.71647 7.14711 4.71647C7.45844 4.71647 7.77309 4.79114 8.06442 4.9458C10.2597 6.10776 12.9016 10.5816 12.9243 10.6196C13.2236 11.1443 13.3376 11.6916 13.2289 12.0836C13.1622 12.3236 13.0129 12.5062 12.7729 12.6409L12.6729 12.7102C12.1043 13.1849 10.751 14.3328 10.4677 14.7508C10.0597 15.3535 9.78903 15.9454 9.64703 16.5274C9.17305 15.5821 8.78973 14.4875 8.66373 13.2735C8.62573 12.9082 8.29774 12.6502 7.93176 12.6789C7.56577 12.7175 7.29911 13.0449 7.33711 13.4115C7.81843 18.0467 11.423 21.0639 11.5763 21.1899C11.593 21.2033 11.6123 21.2086 11.6296 21.2199L18.7047 28.295C18.7347 28.325 18.7661 28.3517 18.7961 28.381C18.8194 28.415 18.8347 28.453 18.8654 28.4837C18.9914 28.6083 22.0013 31.5282 26.5978 32.0056C26.6211 32.0076 26.6445 32.0089 26.6671 32.0089C27.0045 32.0089 27.2938 31.7536 27.3298 31.4116C27.3678 31.0449 27.1018 30.7176 26.7351 30.6789C25.3258 30.5329 24.0772 30.1196 23.0366 29.6403C23.5466 29.487 24.0652 29.2323 24.5912 28.8763C25.0099 28.5923 26.1578 27.2397 26.6318 26.6711L26.7011 26.5704C26.8358 26.3311 27.0185 26.1818 27.2584 26.1144C27.6504 26.0084 28.1978 26.1198 28.7157 26.4144C28.7604 26.4411 33.2342 29.083 34.3962 31.2782C34.8002 32.0402 34.6615 32.9635 34.0509 33.5742Z" fill="white"/>
</svg>
