<svg width="64" height="64" viewBox="0 0 64 64" fill="none" xmlns="http://www.w3.org/2000/svg">
<g clip-path="url(#clip0_569_106)">
<path d="M25.8974 0H3.81739C1.71224 0 0.000244141 1.712 0.000244141 3.81714V25.8971C0.000244141 28.0023 1.71224 29.7143 3.81739 29.7143H25.8974C28.0025 29.7143 29.7145 28.0023 29.7145 25.8971V3.81714C29.7145 1.712 28.0025 0 25.8974 0ZM27.4288 25.8971C27.4288 26.7417 26.742 27.4286 25.8974 27.4286H3.81739C2.97282 27.4286 2.28596 26.7417 2.28596 25.8971V3.81714C2.28596 2.97257 2.97282 2.28571 3.81739 2.28571H25.8974C26.742 2.28571 27.4288 2.97257 27.4288 3.81714V25.8971Z" fill="white" fill-opacity="0.24"/>
<path d="M60.183 0H38.103C35.9979 0 34.2859 1.712 34.2859 3.81714V25.8971C34.2859 28.0023 35.9979 29.7143 38.103 29.7143H60.183C62.2882 29.7143 64.0002 28.0023 64.0002 25.8971V3.81714C64.0002 1.712 62.2882 0 60.183 0ZM61.7145 25.8971C61.7145 26.7417 61.0276 27.4286 60.183 27.4286H38.103C37.2585 27.4286 36.5716 26.7417 36.5716 25.8971V3.81714C36.5716 2.97257 37.2585 2.28571 38.103 2.28571H60.183C61.0276 2.28571 61.7145 2.97257 61.7145 3.81714V25.8971Z" fill="white" fill-opacity="0.24"/>
<path d="M25.8974 34.2857H3.81739C1.71224 34.2857 0.000244141 35.9977 0.000244141 38.1028V60.1828C0.000244141 62.288 1.71224 64 3.81739 64H25.8974C28.0025 64 29.7145 62.288 29.7145 60.1828V38.1028C29.7145 35.9977 28.0025 34.2857 25.8974 34.2857ZM27.4288 60.1828C27.4288 61.0274 26.742 61.7143 25.8974 61.7143H3.81739C2.97282 61.7143 2.28596 61.0274 2.28596 60.1828V38.1028C2.28596 37.2583 2.97282 36.5714 3.81739 36.5714H25.8974C26.742 36.5714 27.4288 37.2583 27.4288 38.1028V60.1828Z" fill="white" fill-opacity="0.24"/>
<path d="M62.8573 48H50.2859V35.4286C50.2859 34.7966 49.775 34.2857 49.143 34.2857C48.511 34.2857 48.0002 34.7966 48.0002 35.4286V48H35.4287C34.7967 48 34.2859 48.5108 34.2859 49.1428C34.2859 49.7748 34.7967 50.2857 35.4287 50.2857H48.0002V62.8571C48.0002 63.4891 48.511 64 49.143 64C49.775 64 50.2859 63.4891 50.2859 62.8571V50.2857H62.8573C63.4893 50.2857 64.0002 49.7748 64.0002 49.1428C64.0002 48.5108 63.4893 48 62.8573 48Z" fill="white" fill-opacity="0.24"/>
</g>
<defs>
<clipPath id="clip0_569_106">
<rect width="64" height="64" fill="white" transform="translate(0.000244141)"/>
</clipPath>
</defs>
</svg>
