<svg width="75" height="74" viewBox="0 0 75 74" fill="none" xmlns="http://www.w3.org/2000/svg">
<g clip-path="url(#clip0_494_281)">
<path d="M69.0301 11.9355H61.8688V10.2478L51.621 0H14.1268V11.9355H6.96554C3.67493 11.9355 0.997803 14.6126 0.997803 17.9032V60.871C0.997803 64.1616 3.67493 66.8387 6.96554 66.8387H22.4817V71.6129H17.7075V74H58.2881V71.6129H53.5139V66.8387H69.0301C72.3207 66.8387 74.9978 64.1616 74.9978 60.871V17.9032C74.9978 14.6126 72.3207 11.9355 69.0301 11.9355ZM52.3204 4.07477L57.794 9.54839H52.3204V4.07477ZM54.7075 11.9355V28.6452H21.2881V7.16129H49.9333V11.9355H54.7075ZM16.5139 2.3871H49.9333V4.77419H18.901V31.0323H57.0946V11.9355H59.4817V52.5161H16.5139V2.3871ZM51.1268 71.6129H24.8688V66.8387H51.1268V71.6129ZM72.6107 60.871C72.6107 62.8451 71.0042 64.4516 69.0301 64.4516H6.96554C4.99142 64.4516 3.3849 62.8451 3.3849 60.871V59.6774H72.6107V60.871ZM72.6107 57.2903H3.3849V17.9032C3.3849 15.9291 4.99142 14.3226 6.96554 14.3226H14.1268V54.9032H61.8688V14.3226H69.0301C71.0042 14.3226 72.6107 15.9291 72.6107 17.9032V57.2903Z" fill="white" fill-opacity="0.24"/>
<path d="M37.9979 9.5484C33.392 9.5484 29.6431 13.2961 29.6431 17.9032C29.6431 22.5103 33.392 26.2581 37.9979 26.2581C42.6038 26.2581 46.3527 22.5103 46.3527 17.9032C46.3527 13.2961 42.6038 9.5484 37.9979 9.5484ZM37.9979 23.871C34.7073 23.871 32.0302 21.1939 32.0302 17.9032C32.0302 14.6126 34.7073 11.9355 37.9979 11.9355C41.2885 11.9355 43.9656 14.6126 43.9656 17.9032C43.9656 21.1939 41.2885 23.871 37.9979 23.871Z" fill="white" fill-opacity="0.24"/>
<path d="M57.0947 33.4194H18.9011V35.8065H57.0947V33.4194Z" fill="white" fill-opacity="0.24"/>
<path d="M57.0947 38.1935H18.9011V40.5806H57.0947V38.1935Z" fill="white" fill-opacity="0.24"/>
<path d="M36.8043 42.9677H18.9011V45.3548H36.8043V42.9677Z" fill="white" fill-opacity="0.24"/>
<path d="M57.0946 42.9677H39.1914V45.3548H57.0946V42.9677Z" fill="white" fill-opacity="0.24"/>
<path d="M36.8043 47.7419H18.9011V50.129H36.8043V47.7419Z" fill="white" fill-opacity="0.24"/>
<path d="M57.0946 47.7419H39.1914V50.129H57.0946V47.7419Z" fill="white" fill-opacity="0.24"/>
</g>
<defs>
<clipPath id="clip0_494_281">
<rect width="74" height="74" fill="white" transform="translate(0.997803)"/>
</clipPath>
</defs>
</svg>
