<svg width="35" height="140" viewBox="0 0 35 140" fill="none" xmlns="http://www.w3.org/2000/svg">
<path fill-rule="evenodd" clip-rule="evenodd" d="M17.0845 34.4187C7.64906 34.4187 0 26.7912 0 17.3823C0 7.97347 7.64906 0.345947 17.0845 0.345947C26.52 0.345947 34.169 7.97347 34.169 17.3823C34.169 26.7912 26.52 34.4187 17.0845 34.4187ZM9.88517 46.1579C10.6698 45.3753 11.6671 44.9826 12.8768 44.9826H21.58C22.7868 44.9826 23.784 45.3753 24.5716 46.1579C25.3564 46.9432 25.7502 47.9377 25.7502 49.1412V134.843C25.7502 136.049 25.3564 137.043 24.5716 137.826C23.784 138.611 22.7868 139.001 21.58 139.001H12.8768C11.6671 139.001 10.6698 138.611 9.88517 137.826C9.09761 137.043 8.70657 136.049 8.70657 134.843V49.1412C8.70657 47.9377 9.09761 46.9432 9.88517 46.1579Z" fill="#222222"/>
</svg>
