<svg width="41" height="58" viewBox="0 0 41 58" fill="none" xmlns="http://www.w3.org/2000/svg">
<g clip-path="url(#clip0_761_131)">
<path fill-rule="evenodd" clip-rule="evenodd" d="M7.32859 54.9964C7.51632 55.0028 7.7034 54.9713 7.87818 54.9038C8.05296 54.8363 8.2117 54.7343 8.34453 54.604C8.47736 54.4738 8.58144 54.3182 8.65029 54.1468C8.71914 53.9755 8.7513 53.792 8.74475 53.608V24.9937C8.7513 24.8097 8.71915 24.6263 8.6503 24.4549C8.58144 24.2835 8.47737 24.1279 8.34454 23.9977C8.21171 23.8674 8.05296 23.7654 7.87818 23.6979C7.7034 23.6304 7.51633 23.5988 7.32859 23.6052H4.37303C4.1853 23.5989 3.99824 23.6304 3.82349 23.6979C3.64873 23.7655 3.49002 23.8675 3.35721 23.9977C3.2244 24.128 3.12034 24.2836 3.0515 24.4549C2.98266 24.6263 2.95052 24.8097 2.95706 24.9937V53.608C2.95051 53.792 2.98267 53.9755 3.05152 54.1468C3.12037 54.3182 3.22445 54.4738 3.35728 54.604C3.49011 54.7343 3.64885 54.8363 3.82363 54.9038C3.99841 54.9713 4.18549 55.0028 4.37323 54.9964H7.32878H7.32859ZM7.75958 17.7496C8.14744 17.7582 8.52328 17.6173 8.80633 17.3572C8.94684 17.2312 9.05806 17.077 9.13242 16.9052C9.20679 16.7333 9.24257 16.5478 9.23733 16.3611V13.1013C9.23815 12.9108 9.20048 12.722 9.12651 12.5459C9.05254 12.3697 8.94372 12.2097 8.80633 12.075C8.66895 11.9403 8.50572 11.8336 8.32606 11.7611C8.1464 11.6886 7.95387 11.6517 7.75958 11.6525H3.88045C3.6901 11.6473 3.50086 11.6824 3.32556 11.7553C3.15027 11.8282 2.99303 11.9373 2.86452 12.075C2.59919 12.3525 2.45548 12.721 2.46428 13.1013V16.3611C2.45773 16.5452 2.48988 16.7286 2.55874 16.9C2.62759 17.0713 2.73167 17.227 2.8645 17.3572C2.99733 17.4874 3.15607 17.5895 3.33085 17.657C3.50563 17.7245 3.69271 17.756 3.88045 17.7496H7.75958ZM34.8105 54.9657C35.2203 54.9657 35.3532 54.8666 35.6209 54.6044C35.7534 54.4739 35.8572 54.3182 35.9261 54.1469C35.9949 53.9756 36.0273 53.7923 36.0212 53.6083V51.4347C36.0277 51.2507 35.9955 51.0673 35.9267 50.8959C35.8578 50.7246 35.7537 50.5689 35.6209 50.4387C35.4881 50.3085 35.3294 50.2064 35.1546 50.1389C34.9798 50.0714 34.7927 50.0399 34.605 50.0463H30.849C29.1653 50.0463 27.9954 49.503 27.3393 48.4164C26.6823 47.3297 26.3539 45.8407 26.3539 43.9492V17.8168H33.9892C34.4404 17.8168 34.7893 17.686 35.0359 17.4244C35.2826 17.1628 35.4057 16.8308 35.4053 16.4283V12.8594C35.4053 12.4575 35.2822 12.1255 35.0359 11.8633C34.7896 11.602 34.4407 11.4712 33.9892 11.4709H26.3539V1.38913C26.3604 1.20507 26.3283 1.02165 26.2594 0.850288C26.1906 0.678926 26.0865 0.523289 25.9537 0.393056C25.8208 0.262824 25.6621 0.160783 25.4873 0.0932836C25.3125 0.0257838 25.1254 -0.00573157 24.9377 0.00069833H22.0439C21.8562 -0.00573966 21.6691 0.0257689 21.4943 0.0932633C21.3195 0.160758 21.1607 0.262794 21.0279 0.393025C20.895 0.523257 20.7909 0.678896 20.7221 0.850262C20.6532 1.02163 20.621 1.20506 20.6276 1.38913V11.4705H3.44798C3.26034 11.4646 3.07344 11.4963 2.89876 11.5638C2.72409 11.6313 2.56533 11.733 2.43226 11.8629C2.16481 12.1251 2.03208 13.974 2.03208 14.3758V16.4285C2.02553 16.6125 2.05767 16.796 2.12652 16.9673C2.19537 17.1387 2.29944 17.2943 2.43227 17.4246C2.56511 17.5548 2.72385 17.6569 2.89864 17.7244C3.07342 17.7919 3.2605 17.8234 3.44825 17.817H20.6276V44.3717C20.6276 46.545 20.956 48.4264 21.6127 50.0161C22.2688 51.6064 23.3156 52.8339 24.753 53.6985C26.1894 54.5644 28.0571 54.997 30.3562 54.9964L34.8105 54.9657Z" fill="#222222"/>
<path fill-rule="evenodd" clip-rule="evenodd" d="M5.80201 8.7019C6.94949 8.7019 8.07121 9.03551 9.0253 9.66054C9.9794 10.2856 10.723 11.1739 11.1621 12.2133C11.6013 13.2527 11.7162 14.3964 11.4923 15.4998C11.2684 16.6032 10.7159 17.6167 9.90445 18.4122C9.09305 19.2077 8.05927 19.7495 6.93384 19.9689C5.8084 20.1884 4.64186 20.0758 3.58172 19.6452C2.52159 19.2147 1.61548 18.4856 0.977986 17.5502C0.340488 16.6148 0.000231002 15.515 0.000244141 14.39C0.000261759 12.8814 0.611525 11.4346 1.69957 10.3679C2.78761 9.30118 4.2633 8.7019 5.80201 8.7019Z" fill="#222222"/>
<path fill-rule="evenodd" clip-rule="evenodd" d="M35.1975 46.6226C36.345 46.6226 37.4667 46.9562 38.4208 47.5812C39.3749 48.2062 40.1186 49.0946 40.5577 50.134C40.9968 51.1733 41.1117 52.317 40.8878 53.4204C40.664 54.5238 40.1114 55.5374 39.3 56.3329C38.4886 57.1284 37.4548 57.6701 36.3294 57.8896C35.2039 58.109 34.0374 57.9964 32.9772 57.5659C31.9171 57.1353 31.011 56.4063 30.3735 55.4708C29.736 54.5354 29.3957 53.4357 29.3958 52.3106C29.3958 51.5637 29.5458 50.824 29.8374 50.1339C30.129 49.4438 30.5563 48.8167 31.0951 48.2885C31.6338 47.7603 32.2734 47.3414 32.9773 47.0555C33.6812 46.7697 34.4356 46.6226 35.1975 46.6226Z" fill="#222222"/>
<path fill-rule="evenodd" clip-rule="evenodd" d="M6.69298 14.4138C6.85535 14.3534 6.99583 14.2472 7.09668 14.1087C7.19754 13.9623 7.24883 13.7885 7.24329 13.612C7.2494 13.4819 7.22226 13.3524 7.16432 13.2352C7.10638 13.1181 7.01948 13.017 6.91154 12.9411C6.69037 12.7831 6.37921 12.7041 5.97806 12.7041H4.42505V16.2342H6.08116C6.52682 16.2342 6.86371 16.1526 7.09183 15.9896C7.31995 15.8266 7.43397 15.5938 7.43388 15.2912C7.44293 15.0823 7.3745 14.8772 7.24123 14.7138C7.09834 14.5562 6.90534 14.4505 6.69351 14.4139L6.69298 14.4138ZM5.95235 13.0119C6.24371 13.0119 6.46829 13.0666 6.62609 13.1758C6.69975 13.2325 6.75931 13.3048 6.80027 13.3874C6.84123 13.4699 6.86252 13.5605 6.86252 13.6523C6.86252 13.7441 6.84123 13.8347 6.80027 13.9173C6.75931 13.9998 6.69975 14.0722 6.62609 14.1288C6.46834 14.2381 6.24376 14.2928 5.95235 14.2927H4.80536V13.0119H5.95235ZM6.07578 15.9266H4.80536V14.6003H6.07578C6.72719 14.6003 7.05293 14.8205 7.05297 15.2609C7.05297 15.4895 6.97068 15.6576 6.80611 15.7652C6.64154 15.8727 6.3981 15.9265 6.07578 15.9266ZM10.9927 16.2341H11.3936L9.74778 12.7041H9.37232L7.72664 16.2341H8.12263L8.55443 15.2911H10.5603L10.9927 16.2341ZM8.69367 14.9886L9.55773 13.0926L10.4218 14.9886H8.69367ZM12.9831 16.2644C13.238 16.2716 13.4918 16.2278 13.7289 16.1358C13.9108 16.0661 14.0674 15.945 14.179 15.7878C14.2761 15.6435 14.3271 15.4741 14.3255 15.3012C14.3357 15.1159 14.2752 14.9335 14.1558 14.7895C14.0432 14.6638 13.9011 14.5669 13.7418 14.5071C13.5326 14.4311 13.3187 14.368 13.1015 14.3182C12.8785 14.2645 12.7011 14.2149 12.5691 14.1694C12.4456 14.1291 12.333 14.0619 12.2399 13.9727C12.1956 13.9277 12.1611 13.8743 12.1386 13.8158C12.116 13.7573 12.1059 13.6949 12.1088 13.6324C12.1075 13.5422 12.1285 13.4531 12.1702 13.3727C12.2119 13.2923 12.2729 13.2231 12.3479 13.171C12.5074 13.0517 12.7448 12.992 13.0603 12.9919C13.231 12.9928 13.4007 13.0175 13.5643 13.0651C13.7359 13.1139 13.8989 13.1879 14.0478 13.2844L14.1764 12.9869C14.0197 12.8837 13.8469 12.8062 13.6649 12.7575C13.4683 12.7021 13.2648 12.6741 13.0603 12.6743C12.8068 12.6667 12.5545 12.7113 12.3197 12.8054C12.1404 12.8771 11.9865 12.9989 11.8774 13.1558C11.7818 13.3007 11.7317 13.4699 11.7334 13.6425C11.7229 13.8306 11.7844 14.0157 11.9057 14.1618C12.0183 14.2881 12.1603 14.3858 12.3197 14.4467C12.5315 14.5243 12.7479 14.5892 12.9678 14.6409C13.1469 14.6813 13.3237 14.7309 13.4975 14.7896C13.6176 14.831 13.7273 14.8972 13.819 14.9837C13.8634 15.0282 13.898 15.0811 13.9205 15.1393C13.9431 15.1974 13.9532 15.2595 13.9502 15.3216C13.9513 15.4106 13.9297 15.4985 13.8875 15.5772C13.8453 15.656 13.7838 15.7233 13.7084 15.7729C13.547 15.8887 13.3052 15.9465 12.9831 15.9465C12.7548 15.9468 12.5283 15.9067 12.3145 15.8281C12.1206 15.7625 11.9434 15.6567 11.795 15.5179L11.646 15.8055C11.8059 15.9591 12.0007 16.0731 12.2143 16.1383C12.4615 16.2227 12.7215 16.2653 12.9833 16.2644H12.9831ZM15.5341 15.9114V14.6003H17.3959V14.2827H15.5341V13.027H17.6223V12.7043H15.1536V16.2344H17.6994V15.9114H15.5338H15.5341Z" fill="white"/>
</g>
<defs>
<clipPath id="clip0_761_131">
<rect width="41" height="58" fill="white"/>
</clipPath>
</defs>
</svg>
