<svg width="115" height="174" viewBox="0 0 115 174" fill="none" xmlns="http://www.w3.org/2000/svg">
<path fill-rule="evenodd" clip-rule="evenodd" d="M54.7596 53.6461V133.18C54.7596 139.689 55.7257 145.325 57.6606 150.085C59.5927 154.848 62.6751 158.523 66.9077 161.114C71.1375 163.707 76.6364 165.001 83.4075 165.001C83.4075 165.001 98.1223 164.611 98.9098 163.826C99.6946 163.044 100.088 162.049 100.088 160.843V154.334C100.088 153.13 99.6946 152.136 98.9098 151.351C98.1223 150.568 97.125 150.175 95.9182 150.175H84.858C79.9 150.175 76.4552 148.548 74.5229 145.294C72.588 142.039 71.6219 137.581 71.6219 131.914V53.6461H94.105C95.4337 53.6461 96.4622 53.2562 97.1874 52.4708C97.9128 51.6882 98.2752 50.6938 98.2752 49.4875V38.7972C98.2752 37.5936 97.9128 36.5992 97.1874 35.8138C96.4622 35.0312 95.4337 34.6385 94.105 34.6385H71.6219V4.44409C71.6219 3.24072 71.2281 2.24627 70.4435 1.46092C69.6557 0.678315 68.6585 0.285645 67.4517 0.285645H58.9298C57.7201 0.285645 56.7228 0.678315 55.9382 1.46092C55.1506 2.24627 54.7596 3.24072 54.7596 4.44409V34.6385H4.17019C2.96048 34.6385 1.96322 35.0312 1.1784 35.8138C0.390846 36.5992 0 42.1367 0 43.3401V49.4875C0 50.6938 0.390846 51.6882 1.1784 52.4708C1.96322 53.2562 2.96048 53.6461 4.17019 53.6461H54.7596Z" fill="#222222"/>
<path fill-rule="evenodd" clip-rule="evenodd" d="M97.6631 139.921C107.099 139.921 114.747 147.549 114.747 156.958C114.747 166.367 107.099 173.994 97.6631 173.994C88.2275 173.994 80.5786 166.367 80.5786 156.958C80.5786 147.549 88.2275 139.921 97.6631 139.921Z" fill="#222222"/>
</svg>
