<svg width="57" height="57" viewBox="0 0 57 57" fill="none" xmlns="http://www.w3.org/2000/svg">
<g filter="url(#filter0_d_507_185)">
<path fill-rule="evenodd" clip-rule="evenodd" d="M36.2429 31C35.352 31 34.9058 32.0771 35.5358 32.7071L46.414 43.5854C46.8272 43.9985 47.5066 43.972 47.8649 43.5105C50.3881 40.2601 52.1109 36.3574 52.7378 32.0981C52.824 31.5123 52.3598 31 51.7677 31H36.2429ZM43.5856 46.4138C43.9988 46.827 43.9722 47.5064 43.5107 47.8646C39.3641 51.0836 34.1559 53 28.5001 53C22.6597 53 17.2965 50.9564 13.0868 47.5452C12.639 47.1823 12.6197 46.5139 13.0272 46.1064L28.1201 31.0135C28.1287 31.0049 28.1405 31 28.1527 31C28.1649 31 28.1767 31.0049 28.1853 31.0135L43.5856 46.4138ZM27.4456 24.6169C27.8361 25.0075 28.4693 25.0075 28.8598 24.6169L43.1907 10.2861C43.6095 9.86726 43.5755 9.17678 43.1001 8.82349C39.0227 5.79304 33.9708 4 28.5001 4C22.8444 4 17.6363 5.9164 13.4897 9.13527C13.0282 9.49355 13.0016 10.173 13.4148 10.5861L27.4456 24.6169ZM9.13551 13.4894C9.4938 13.0279 10.1732 13.0014 10.5863 13.4145L22.4647 25.2929C23.0947 25.9229 22.6485 27 21.7576 27H5.10753C4.53154 27 4.07269 26.5142 4.13215 25.9413C4.61612 21.2776 6.40836 17.0025 9.13551 13.4894ZM47.5453 13.0866C47.1824 12.6388 46.5141 12.6195 46.1065 13.0271L33.8407 25.2929C33.2107 25.9229 33.6569 27 34.5478 27H51.8928C52.4688 27 52.9276 26.5143 52.8681 25.9414C52.3655 21.0979 50.4518 16.6736 47.5453 13.0866ZM8.82364 43.1C9.17693 43.5754 9.8674 43.6093 10.2862 43.1905L20.7696 32.7071C21.3996 32.0771 20.9534 31 20.0625 31H5.2326C4.64045 31 4.17627 31.5123 4.26249 32.0981C4.86319 36.1796 6.4703 39.9336 8.82364 43.1Z" fill="#FFA31A"/>
</g>
<defs>
<filter id="filter0_d_507_185" x="0.126953" y="0" width="56.7463" height="57" filterUnits="userSpaceOnUse" color-interpolation-filters="sRGB">
<feFlood flood-opacity="0" result="BackgroundImageFix"/>
<feColorMatrix in="SourceAlpha" type="matrix" values="0 0 0 0 0 0 0 0 0 0 0 0 0 0 0 0 0 0 127 0" result="hardAlpha"/>
<feOffset/>
<feGaussianBlur stdDeviation="2"/>
<feComposite in2="hardAlpha" operator="out"/>
<feColorMatrix type="matrix" values="0 0 0 0 1 0 0 0 0 0.639216 0 0 0 0 0.101961 0 0 0 0.7 0"/>
<feBlend mode="normal" in2="BackgroundImageFix" result="effect1_dropShadow_507_185"/>
<feBlend mode="normal" in="SourceGraphic" in2="effect1_dropShadow_507_185" result="shape"/>
</filter>
</defs>
</svg>
