<svg width="49" height="49" viewBox="0 0 49 49" fill="none" xmlns="http://www.w3.org/2000/svg">
<path fill-rule="evenodd" clip-rule="evenodd" d="M5.91265 38C5.11557 38 4.64768 38.8819 5.13648 39.5115C9.61859 45.2848 16.6256 49 24.5004 49C32.3752 49 39.3822 45.2848 43.8643 39.5115C44.3531 38.8819 43.8852 38 43.0881 38H5.91265ZM2.5743 34C2.17195 34 1.80699 33.7596 1.66104 33.3846C1.00699 31.7045 0.532982 29.9344 0.26272 28.098C0.176502 27.5121 0.640694 27 1.23285 27H47.7679C48.3601 27 48.8243 27.5121 48.7381 28.098C48.4678 29.9344 47.9938 31.7045 47.3397 33.3846C47.1938 33.7596 46.8288 34 46.4265 34H2.5743ZM48.8684 21.9414C48.9278 22.5143 48.469 23 47.893 23H1.10778C0.531785 23 0.0729376 22.5143 0.13239 21.9414C0.322182 20.1124 0.713174 18.3433 1.28285 16.6564C1.41674 16.2599 1.79287 16 2.21134 16H46.7894C47.2079 16 47.584 16.2599 47.7179 16.6564C48.2876 18.3433 48.6786 20.1124 48.8684 21.9414ZM24.5004 0C16.165 0 8.80181 4.16258 4.37619 10.5224C3.93326 11.1589 4.4069 12 5.18234 12H43.8184C44.5939 12 45.0675 11.1589 44.6246 10.5224C40.199 4.16258 32.8358 0 24.5004 0Z" fill="#FFA31A"/>
</svg>
