<svg width="41" height="58" viewBox="0 0 41 58" fill="none" xmlns="http://www.w3.org/2000/svg">
<g clip-path="url(#clip0_1188_582)">
<path fill-rule="evenodd" clip-rule="evenodd" d="M7.32859 54.9965C7.51632 55.003 7.7034 54.9714 7.87818 54.9039C8.05296 54.8364 8.2117 54.7344 8.34453 54.6042C8.47736 54.4739 8.58144 54.3183 8.65029 54.1469C8.71914 53.9756 8.7513 53.7922 8.74475 53.6081V24.9939C8.7513 24.8098 8.71915 24.6264 8.6503 24.455C8.58144 24.2837 8.47737 24.128 8.34454 23.9978C8.21171 23.8675 8.05296 23.7655 7.87818 23.698C7.7034 23.6305 7.51633 23.5989 7.32859 23.6054H4.37303C4.1853 23.599 3.99824 23.6305 3.82349 23.698C3.64873 23.7656 3.49002 23.8676 3.35721 23.9979C3.2244 24.1281 3.12034 24.2837 3.0515 24.4551C2.98266 24.6264 2.95052 24.8098 2.95706 24.9939V53.6081C2.95051 53.7922 2.98267 53.9756 3.05152 54.1469C3.12037 54.3183 3.22445 54.4739 3.35728 54.6042C3.49011 54.7344 3.64885 54.8364 3.82363 54.9039C3.99841 54.9714 4.18549 55.003 4.37323 54.9965H7.32878H7.32859ZM7.75958 17.7497C8.14744 17.7583 8.52328 17.6175 8.80633 17.3573C8.94684 17.2313 9.05806 17.0772 9.13242 16.9053C9.20679 16.7334 9.24257 16.5479 9.23733 16.3613V13.1014C9.23815 12.9109 9.20048 12.7221 9.12651 12.546C9.05254 12.3699 8.94372 12.2098 8.80633 12.0751C8.66895 11.9404 8.50572 11.8338 8.32606 11.7612C8.1464 11.6887 7.95387 11.6518 7.75958 11.6526H3.88045C3.6901 11.6474 3.50086 11.6825 3.32556 11.7554C3.15027 11.8283 2.99303 11.9374 2.86452 12.0751C2.59919 12.3526 2.45548 12.7211 2.46428 13.1014V16.3613C2.45773 16.5453 2.48988 16.7287 2.55874 16.9001C2.62759 17.0714 2.73167 17.2271 2.8645 17.3573C2.99733 17.4875 3.15607 17.5896 3.33085 17.6571C3.50563 17.7246 3.69271 17.7561 3.88045 17.7497H7.75958ZM34.8105 54.9658C35.2203 54.9658 35.3532 54.8667 35.6209 54.6045C35.7534 54.474 35.8572 54.3183 35.9261 54.147C35.9949 53.9757 36.0273 53.7924 36.0212 53.6084V51.4349C36.0277 51.2508 35.9955 51.0674 35.9267 50.896C35.8578 50.7247 35.7537 50.569 35.6209 50.4388C35.4881 50.3086 35.3294 50.2066 35.1546 50.139C34.9798 50.0715 34.7927 50.04 34.605 50.0464H30.849C29.1653 50.0464 27.9954 49.5031 27.3393 48.4165C26.6823 47.3299 26.3539 45.8408 26.3539 43.9493V17.817H33.9892C34.4404 17.817 34.7893 17.6862 35.0359 17.4246C35.2826 17.163 35.4057 16.8309 35.4053 16.4285V12.8595C35.4053 12.4576 35.2822 12.1256 35.0359 11.8634C34.7896 11.6021 34.4407 11.4713 33.9892 11.471H26.3539V1.38925C26.3604 1.20519 26.3283 1.02177 26.2594 0.85041C26.1906 0.679049 26.0865 0.523411 25.9537 0.393178C25.8208 0.262946 25.6621 0.160906 25.4873 0.0934057C25.3125 0.0259059 25.1254 -0.0056095 24.9377 0.0008204H22.0439C21.8562 -0.00561759 21.6691 0.0258909 21.4943 0.0933853C21.3195 0.16088 21.1607 0.262916 21.0279 0.393147C20.895 0.523379 20.7909 0.679018 20.7221 0.850385C20.6532 1.02175 20.621 1.20518 20.6276 1.38925V11.4707H3.44798C3.26034 11.4647 3.07344 11.4964 2.89876 11.5639C2.72409 11.6314 2.56533 11.7332 2.43226 11.863C2.16481 12.1252 2.03208 13.9741 2.03208 14.3759V16.4286C2.02553 16.6127 2.05767 16.7961 2.12652 16.9674C2.19537 17.1388 2.29944 17.2945 2.43227 17.4247C2.56511 17.5549 2.72385 17.657 2.89864 17.7245C3.07342 17.792 3.2605 17.8235 3.44825 17.8171H20.6276V44.3719C20.6276 46.5451 20.956 48.4266 21.6127 50.0162C22.2688 51.6065 23.3156 52.834 24.753 53.6986C26.1894 54.5645 28.0571 54.9971 30.3562 54.9965L34.8105 54.9658Z" fill="white"/>
<path fill-rule="evenodd" clip-rule="evenodd" d="M5.80201 8.7019C6.94949 8.7019 8.07121 9.03551 9.0253 9.66054C9.9794 10.2856 10.723 11.1739 11.1621 12.2133C11.6013 13.2527 11.7162 14.3964 11.4923 15.4998C11.2684 16.6032 10.7159 17.6167 9.90445 18.4122C9.09305 19.2077 8.05927 19.7495 6.93384 19.9689C5.8084 20.1884 4.64186 20.0758 3.58172 19.6452C2.52159 19.2147 1.61548 18.4856 0.977986 17.5502C0.340488 16.6148 0.000231002 15.515 0.000244141 14.39C0.000261759 12.8814 0.611525 11.4346 1.69957 10.3679C2.78761 9.30118 4.2633 8.7019 5.80201 8.7019Z" fill="white"/>
<path fill-rule="evenodd" clip-rule="evenodd" d="M35.1975 46.6228C36.345 46.6228 37.4667 46.9564 38.4208 47.5814C39.3749 48.2065 40.1186 49.0948 40.5577 50.1342C40.9968 51.1736 41.1117 52.3173 40.8878 53.4207C40.664 54.5241 40.1114 55.5376 39.3 56.3331C38.4886 57.1286 37.4548 57.6703 36.3294 57.8898C35.2039 58.1093 34.0374 57.9966 32.9772 57.5661C31.9171 57.1356 31.011 56.4065 30.3735 55.4711C29.736 54.5357 29.3957 53.4359 29.3958 52.3109C29.3958 51.5639 29.5458 50.8243 29.8374 50.1341C30.129 49.444 30.5563 48.817 31.0951 48.2888C31.6338 47.7606 32.2734 47.3416 32.9773 47.0558C33.6812 46.7699 34.4356 46.6228 35.1975 46.6228Z" fill="white"/>
<path fill-rule="evenodd" clip-rule="evenodd" d="M6.69298 14.4139C6.85535 14.3535 6.99583 14.2474 7.09668 14.1088C7.19754 13.9624 7.24883 13.7886 7.24329 13.6121C7.2494 13.482 7.22226 13.3525 7.16432 13.2354C7.10638 13.1182 7.01948 13.0171 6.91154 12.9413C6.69037 12.7833 6.37921 12.7043 5.97806 12.7043H4.42505V16.2343H6.08116C6.52682 16.2343 6.86371 16.1528 7.09183 15.9897C7.31995 15.8267 7.43397 15.5939 7.43388 15.2913C7.44293 15.0824 7.3745 14.8773 7.24123 14.714C7.09834 14.5563 6.90534 14.4506 6.69351 14.414L6.69298 14.4139ZM5.95235 13.0121C6.24371 13.0121 6.46829 13.0667 6.62609 13.1759C6.69975 13.2326 6.75931 13.3049 6.80027 13.3875C6.84123 13.47 6.86252 13.5606 6.86252 13.6524C6.86252 13.7442 6.84123 13.8348 6.80027 13.9174C6.75931 14 6.69975 14.0723 6.62609 14.129C6.46834 14.2383 6.24376 14.2929 5.95235 14.2928H4.80536V13.0121H5.95235ZM6.07578 15.9267H4.80536V14.6004H6.07578C6.72719 14.6004 7.05293 14.8206 7.05297 15.261C7.05297 15.4897 6.97068 15.6577 6.80611 15.7653C6.64154 15.8728 6.3981 15.9266 6.07578 15.9267ZM10.9927 16.2342H11.3936L9.74778 12.7042H9.37232L7.72664 16.2342H8.12263L8.55443 15.2913H10.5603L10.9927 16.2342ZM8.69367 14.9887L9.55773 13.0928L10.4218 14.9887H8.69367ZM12.9831 16.2645C13.238 16.2717 13.4918 16.2279 13.7289 16.1359C13.9108 16.0662 14.0674 15.9451 14.179 15.7879C14.2761 15.6437 14.3271 15.4742 14.3255 15.3014C14.3357 15.116 14.2752 14.9336 14.1558 14.7896C14.0432 14.6639 13.9011 14.567 13.7418 14.5072C13.5326 14.4312 13.3187 14.3681 13.1015 14.3183C12.8785 14.2646 12.7011 14.215 12.5691 14.1695C12.4456 14.1293 12.333 14.062 12.2399 13.9729C12.1956 13.9278 12.1611 13.8744 12.1386 13.8159C12.116 13.7574 12.1059 13.695 12.1088 13.6325C12.1075 13.5423 12.1285 13.4532 12.1702 13.3728C12.2119 13.2924 12.2729 13.2232 12.3479 13.1711C12.5074 13.0518 12.7448 12.9921 13.0603 12.9921C13.231 12.993 13.4007 13.0176 13.5643 13.0652C13.7359 13.114 13.8989 13.188 14.0478 13.2846L14.1764 12.987C14.0197 12.8838 13.8469 12.8063 13.6649 12.7576C13.4683 12.7022 13.2648 12.6742 13.0603 12.6744C12.8068 12.6668 12.5545 12.7114 12.3197 12.8055C12.1404 12.8772 11.9865 12.9991 11.8774 13.1559C11.7818 13.3008 11.7317 13.47 11.7334 13.6426C11.7229 13.8307 11.7844 14.0159 11.9057 14.1619C12.0183 14.2882 12.1603 14.3859 12.3197 14.4469C12.5315 14.5245 12.7479 14.5893 12.9678 14.641C13.1469 14.6814 13.3237 14.731 13.4975 14.7898C13.6176 14.8311 13.7273 14.8973 13.819 14.9839C13.8634 15.0283 13.898 15.0812 13.9205 15.1394C13.9431 15.1975 13.9532 15.2596 13.9502 15.3218C13.9513 15.4107 13.9297 15.4986 13.8875 15.5774C13.8453 15.6562 13.7838 15.7234 13.7084 15.773C13.547 15.8888 13.3052 15.9467 12.9831 15.9467C12.7548 15.9469 12.5283 15.9068 12.3145 15.8282C12.1206 15.7627 11.9434 15.6569 11.795 15.5181L11.646 15.8056C11.8059 15.9592 12.0007 16.0733 12.2143 16.1384C12.4615 16.2228 12.7215 16.2655 12.9833 16.2645H12.9831ZM15.5341 15.9115V14.6004H17.3959V14.2828H15.5341V13.0272H17.6223V12.7044H15.1536V16.2345H17.6994V15.9115H15.5338H15.5341Z" fill="#222222"/>
</g>
<defs>
<clipPath id="clip0_1188_582">
<rect width="41" height="58" fill="white"/>
</clipPath>
</defs>
</svg>
