<svg width="40" height="75" viewBox="0 0 40 75" fill="none" xmlns="http://www.w3.org/2000/svg">
<path d="M19.2677 15.3989C18.6608 15.3989 18.1688 15.8909 18.1688 16.4978V17.7664C18.1688 18.3732 18.6608 18.8653 19.2677 18.8653C19.8747 18.8653 20.3666 18.3734 20.3666 17.7664V16.4978C20.3666 15.8907 19.8747 15.3989 19.2677 15.3989Z" fill="white" fill-opacity="0.24"/>
<path d="M23.2399 14.6637C22.6329 14.6637 22.141 15.1556 22.141 15.7626V17.0313C22.141 17.6383 22.6331 18.1302 23.2399 18.1302C23.8469 18.1302 24.3388 17.6383 24.3388 17.0313V15.7626C24.3388 15.1556 23.847 14.6637 23.2399 14.6637Z" fill="white" fill-opacity="0.24"/>
<path d="M39.3253 18.8645L37.5671 1.52748C37.506 0.923691 36.9672 0.483062 36.3629 0.545059C35.7591 0.606334 35.3192 1.14552 35.3804 1.74931L37.0454 18.1676L30.9017 19.8955C30.3522 20.0501 30.0125 20.5997 30.1199 21.1603L30.8142 24.7795C30.0549 24.7918 29.3043 24.984 28.6268 25.3495L34.1013 1.88805C34.2392 1.29712 33.872 0.706195 33.2808 0.568182C32.6898 0.42988 32.0989 0.797529 31.9609 1.38874L25.9249 27.2561L22.7627 29.5489C22.6457 27.9043 22.0013 26.3634 20.9473 25.1338C24.7026 23.5954 27.3322 19.8563 27.2179 15.5282C27.0774 10.2076 22.7435 5.86542 17.423 5.71946C15.0356 5.65399 12.7611 6.41126 10.9202 7.85844C10.4058 8.2628 10.3689 9.03076 10.8316 9.4935C11.2266 9.88846 11.8522 9.92025 12.2923 9.57616C13.6712 8.49792 15.3596 7.91336 17.1376 7.91336C19.4639 7.91336 21.5576 8.92656 23.0022 10.534C20.4279 11.3338 15.0254 13.2625 9.32015 16.8239C9.27636 16.4884 9.25136 16.147 9.25136 15.7997C9.25136 14.8178 9.43532 13.8429 9.78852 12.9346C9.98925 12.4182 9.7745 11.8336 9.28705 11.5705L9.28691 11.5703C8.71087 11.2595 7.98409 11.5144 7.74593 12.1241C7.29099 13.2895 7.05385 14.5404 7.05385 15.7999C7.05385 18.3558 8.01155 20.6909 9.58432 22.47C5.19103 29.2552 3.37519 37.3569 4.46831 45.3872C4.67684 46.922 5.13207 48.404 5.82112 49.7918C6.50858 51.1784 7.41268 52.4379 8.50898 53.5356L8.96666 53.9933L1.06495 61.8563C0.637474 62.2816 0.632705 62.9721 1.0544 63.4035L2.00864 64.3794L1.18013 65.2078C0.74196 65.646 0.71797 66.3872 1.16698 66.8144C1.37884 67.016 1.65154 67.1168 1.9241 67.1168C2.20533 67.1168 2.48656 67.0096 2.70102 66.7951L3.54528 65.9509L5.487 67.9367L4.69794 68.7257C4.25977 69.1639 4.23578 69.9051 4.68479 70.3323C4.89665 70.5339 5.16921 70.6348 5.44191 70.6348C5.72314 70.6348 6.00437 70.5276 6.21883 70.3131L7.04936 69.4828L8.98602 71.447C9.19052 71.6545 9.46972 71.7713 9.76092 71.7713H9.76526C10.0563 71.7713 10.3354 71.6558 10.5413 71.4504L11.1007 70.8922C12.9254 69.0659 13.1578 66.2418 11.7985 64.1622L18.7365 57.251C20.5294 55.4539 20.529 52.5331 18.7357 50.7395L17.0674 49.0714C17.0416 49.0457 16.9636 48.9673 17.0197 48.8321C17.0755 48.6974 17.1854 48.6974 17.2214 48.6974C17.3167 48.6974 17.5084 48.7309 17.7369 48.8262C17.9681 48.9218 18.1261 49.0324 18.1939 49.1009L23.0868 53.9938L15.1849 61.8567C14.7574 62.282 14.7527 62.9725 15.1743 63.4039L16.1029 64.3534L15.2479 65.2085C14.81 65.6464 14.7857 66.3873 15.2345 66.8145C15.4465 67.0164 15.7195 67.1174 15.9922 67.1174C16.2734 67.1174 16.5546 67.0102 16.7692 66.7957L17.6397 65.9253L19.5812 67.9109L18.7657 68.7264C18.3278 69.1643 18.3036 69.9053 18.7523 70.3325C18.9643 70.5343 19.2373 70.6354 19.51 70.6354C19.7912 70.6354 20.0724 70.5281 20.2872 70.3137L21.1437 69.457L23.1058 71.4468C23.3106 71.6546 23.5902 71.7716 23.8819 71.7716H23.8855C24.177 71.7716 24.4565 71.6558 24.6627 71.4497L25.2198 70.8925C27.0364 69.0743 27.2734 66.2564 25.9266 64.1787L30.9068 59.2004L33.4133 73.6216C33.5062 74.1558 33.9704 74.5325 34.4947 74.5325C34.5573 74.5325 34.6204 74.5273 34.6842 74.5163C35.2822 74.4123 35.6825 73.8433 35.5787 73.2455L32.8419 57.5002L37.9786 53.944C38.3362 53.6965 38.5141 53.2609 38.4323 52.8337L32.4689 21.7382L38.5296 20.0336C39.0436 19.8887 39.3792 19.3957 39.3253 18.8645ZM31.2403 27.0002L31.5398 28.5621L30.4509 27.0145C30.7106 26.9694 30.9766 26.9643 31.2403 27.0002ZM27.879 28.5542L28.52 28.0894L31.4779 32.2935L26.1219 36.0852L27.879 28.5542ZM27.9964 39.5137C28.4843 40.0107 28.7461 40.6551 28.7336 41.3282C28.7131 42.4354 27.9782 43.3763 26.978 43.7172V38.8649C27.3578 39.0019 27.709 39.2209 27.9964 39.5137ZM25.1627 30.5236L23.767 36.5053L22.8038 36.5056L22.7905 32.2437L25.1627 30.5236ZM15.8221 15.7584C19.6367 13.9196 22.8338 12.876 24.2748 12.4489C24.7545 13.4664 25.0241 14.6019 25.0241 15.7995C25.0241 19.944 21.8097 23.3494 17.7434 23.6598L15.4349 19.8287L15.8221 15.7584ZM20.385 28.636C17.9321 28.5672 15.6995 27.3607 14.284 25.4695C15.1895 25.7371 16.1467 25.8832 17.1379 25.8832C17.5895 25.8832 18.0333 25.8504 18.4693 25.7926C19.4075 26.5163 20.0733 27.5152 20.385 28.636ZM13.502 16.9404L13.3349 18.6964L11.3286 18.1733C12.0612 17.7354 12.7878 17.3247 13.502 16.9404ZM13.5961 21.0359L15.0165 23.3933C13.2183 22.8903 11.6778 21.7659 10.643 20.2654L13.5961 21.0359ZM11.1134 24.1612C12.5338 28.1236 16.3224 30.8307 20.5884 30.8378L20.6061 36.5062L17.2593 36.5073L14.905 30.3608C14.0395 28.1012 11.6328 26.8782 9.34096 27.4251C9.86483 26.3084 10.4563 25.2186 11.1134 24.1612ZM8.0932 31.0189C8.37356 30.3904 8.88197 29.9087 9.52464 29.6624C9.82697 29.5467 10.1375 29.4919 10.4433 29.4919C11.4801 29.4919 12.46 30.1226 12.8524 31.1469L15.4771 37.9997C15.6398 38.4247 16.0479 38.7055 16.5033 38.7055C16.5035 38.7055 16.5036 38.7055 16.5038 38.7055L24.6162 38.7028C24.624 38.7029 24.6319 38.7041 24.6397 38.7041C24.6451 38.7041 24.6504 38.7028 24.6559 38.7027H24.7802V43.8557L13.9757 43.8591C13.9753 43.8591 13.9747 43.8591 13.9743 43.8591C13.8069 43.8591 13.6392 43.8427 13.4753 43.8103C12.6008 43.6374 11.8885 43.0371 11.5694 42.2041L8.04017 32.9901C7.79391 32.3473 7.81284 31.6474 8.0932 31.0189ZM6.75947 35.7908L8.95698 41.5279L6.36681 41.5768C6.31956 39.6315 6.45222 37.6954 6.75947 35.7908ZM9.54819 63.3009C9.34139 63.5067 9.22505 63.7865 9.22476 64.0784C9.22462 64.3703 9.34038 64.6502 9.5466 64.8566C10.7059 66.0158 10.7767 67.8582 9.76049 69.1012L3.38747 62.6454L7.56745 58.4858L10.9681 61.8864L9.54819 63.3009ZM23.6787 63.3168C23.2508 63.7445 23.249 64.4379 23.6752 64.8677C24.8231 66.0254 24.8902 67.8618 23.8797 69.1003L17.5079 62.6454L21.7214 58.4527L25.1325 61.8638L23.6787 63.3168ZM32.617 34.1793L36.1389 52.5428L34.1987 53.8864C34.1724 52.7431 33.7256 51.6082 32.8559 50.7385L32.0323 49.9149C31.6031 49.4857 30.9074 49.4857 30.4782 49.9149C30.049 50.3441 30.049 51.0398 30.4782 51.4691L31.3018 52.2927C32.2392 53.2301 32.239 54.7575 31.3021 55.6964L26.6868 60.3097L23.2791 56.902L25.3977 54.7938C25.5067 54.6853 25.6 54.5597 25.6581 54.417C25.8326 53.9894 25.7252 53.5228 25.42 53.2174L19.751 47.5486C19.3776 47.1725 18.9073 46.9311 18.5809 46.7958C18.1215 46.6041 17.6386 46.4987 17.2219 46.4987C16.2416 46.4987 15.3654 47.0837 14.9901 47.9891C14.6143 48.8949 14.8194 49.9287 15.5128 50.6236L17.1818 52.2927C18.1193 53.2301 18.119 54.7575 17.1834 55.6953L12.5255 60.3353L9.12577 56.9357L11.2815 54.7905C11.3901 54.6825 11.4825 54.5569 11.5398 54.4149C11.712 53.9878 11.6049 53.5226 11.3002 53.2177L10.0638 51.9815C9.13675 51.0531 8.37183 49.9879 7.79001 48.8144C7.20718 47.641 6.82247 46.3882 6.64616 45.0907C6.58633 44.6515 6.5372 44.2122 6.49601 43.7727L9.86468 43.7093C10.5491 44.8745 11.693 45.6985 13.0488 45.9663C13.3527 46.0264 13.6639 46.0569 13.9737 46.0569C13.9746 46.0569 13.9756 46.0569 13.9766 46.0569L25.0621 46.0533L26.8481 47.8392C27.2773 48.2685 27.973 48.2685 28.4022 47.8392C28.8314 47.41 28.8314 46.7143 28.4022 46.2851L27.8535 45.7364C29.617 45.057 30.8937 43.3561 30.9308 41.369C30.9543 40.1011 30.4691 38.8953 29.5644 37.9737C29.2346 37.6379 28.8583 37.3543 28.4518 37.128L32.617 34.1793Z" fill="white" fill-opacity="0.24"/>
</svg>
