<svg width="75" height="75" viewBox="0 0 75 75" fill="none" xmlns="http://www.w3.org/2000/svg">
<path d="M72.7324 29.8071L75 27.5394C71.0578 23.5974 65.8161 21.4262 60.241 21.4262C55.2127 21.4262 50.4562 23.1929 46.679 26.4318C44.6424 24.7538 42.1289 23.6374 39.3764 23.3114C40.1413 14.2712 47.7387 7.14734 56.9732 7.14734V3.94053C45.9745 3.94053 36.9365 12.4922 36.1568 23.2955C33.4387 23.5931 30.9515 24.6651 28.9175 26.2845C22.9385 19.3522 23.2316 8.84288 29.8071 2.26786L27.5392 0C23.5972 3.94224 21.426 9.18387 21.426 14.759C21.426 19.8946 23.2697 24.7463 26.6415 28.5611C25.0529 30.5581 23.9936 32.9919 23.6744 35.6514C14.4625 35.0624 7.14691 27.3849 7.14691 18.0268H3.9401C3.9401 29.1465 12.681 38.2624 23.6528 38.8661C23.9361 41.4995 24.946 43.9173 26.4769 45.9172C19.5481 52.0687 8.9036 51.8297 2.26743 45.1931L0 47.4608C3.94224 51.4028 9.18387 53.574 14.759 53.574C19.9581 53.574 24.8669 51.6852 28.7027 48.2332C30.65 49.8458 33.0357 50.9455 35.6512 51.328C35.0611 60.5388 27.384 67.8531 18.0268 67.8531V71.0599C29.1193 71.0599 38.217 62.3615 38.861 51.4278C41.5506 51.2089 44.0297 50.2364 46.0846 48.7185C52.0615 55.6507 51.7677 66.1584 45.1931 72.7328L47.4608 75C51.4028 71.0578 53.574 65.8161 53.574 60.241C53.574 55.1451 51.759 50.3285 48.4365 46.5274C50.1378 44.5422 51.2995 42.0832 51.6912 39.3766C60.7301 40.1428 67.8529 47.7396 67.8529 56.9735H71.0597C71.0597 46.0025 62.5512 36.9813 51.7863 36.1621C51.5552 33.3867 50.5207 30.8375 48.9139 28.7475C55.8468 22.9432 66.2195 23.2936 72.7324 29.8071ZM37.7046 48.2719C31.6788 48.2719 26.7766 43.3695 26.7766 37.3439C26.7766 31.3183 31.679 26.416 37.7046 26.416C43.7302 26.416 48.6325 31.3183 48.6325 37.3439C48.6325 43.3695 43.7304 48.2719 37.7046 48.2719Z" fill="white" fill-opacity="0.24"/>
</svg>
