<svg width="80" height="64" viewBox="0 0 80 64" fill="none" xmlns="http://www.w3.org/2000/svg">
<path d="M5.58001 63.2428H74.4502C75.4773 63.2417 76.462 62.8332 77.1882 62.1069C77.9145 61.3807 78.323 60.396 78.3241 59.3689V35.274C78.6749 34.9949 78.9584 34.6406 79.154 34.2373C79.3495 33.834 79.4521 33.3919 79.454 32.9437V15.02C79.4518 13.8805 78.9981 12.7883 78.1924 11.9826C77.3866 11.1768 76.2944 10.7232 75.1549 10.7209H56.5123V5.02013C56.5112 3.92449 56.0755 2.87404 55.3007 2.0993C54.526 1.32456 53.4756 0.888817 52.3799 0.887695H27.6488C26.5531 0.888817 25.5026 1.32453 24.7278 2.09925C23.9529 2.87397 23.517 3.92442 23.5157 5.02013V10.7209H4.87314C3.73401 10.7237 2.64236 11.1776 1.83707 11.9833C1.03178 12.789 0.578409 13.8809 0.576172 15.02V32.943C0.578161 33.3912 0.680707 33.8333 0.876251 34.2366C1.0718 34.6399 1.35535 34.9942 1.70602 35.2733V59.3674C1.70677 60.3948 2.11512 61.3799 2.84143 62.1064C3.56774 62.833 4.55266 63.2417 5.58001 63.2428ZM74.4502 60.7713H5.58001C5.20817 60.7709 4.85168 60.623 4.58875 60.3601C4.32583 60.0972 4.17795 59.7407 4.17758 59.3689V36.1229L34.8954 42.3695V47.9708C34.8954 48.2985 35.0256 48.6128 35.2574 48.8446C35.4891 49.0763 35.8035 49.2065 36.1312 49.2065H43.899C44.2267 49.2065 44.541 49.0763 44.7728 48.8446C45.0045 48.6128 45.1347 48.2985 45.1347 47.9708V42.3695L75.8526 36.1229V59.3689C75.8522 59.7407 75.7043 60.0972 75.4414 60.3601C75.1785 60.623 74.822 60.7709 74.4502 60.7713ZM42.6632 41.3548V46.735H37.367V40.9092C37.367 40.2069 37.646 39.5333 38.1426 39.0367C38.6392 38.5401 39.3128 38.2611 40.0151 38.2611C40.7174 38.2611 41.391 38.5401 41.8876 39.0367C42.3842 39.5333 42.6632 40.2069 42.6632 40.9092V41.3548ZM25.9873 5.02013C25.9878 4.57969 26.1631 4.15745 26.4746 3.84608C26.7861 3.5347 27.2084 3.35962 27.6488 3.35925H52.382C52.8223 3.35981 53.2445 3.53497 53.5558 3.84633C53.8672 4.15768 54.0423 4.57981 54.0429 5.02013V10.7209H52.1963V6.34276C52.1963 6.01502 52.0661 5.70069 51.8344 5.46894C51.6026 5.23719 51.2883 5.10699 50.9605 5.10699H29.0696C28.7419 5.10699 28.4276 5.23719 28.1958 5.46894C27.9641 5.70069 27.8339 6.01502 27.8339 6.34276V10.7209H25.9873V5.02013ZM30.3054 10.7209V7.58136H49.7248V10.7209H30.3054ZM3.04772 15.02C3.04847 14.5356 3.24125 14.0712 3.58382 13.7286C3.92639 13.386 4.3908 13.1932 4.87526 13.1925H75.1549C75.6394 13.1932 76.1038 13.386 76.4463 13.7286C76.7889 14.0712 76.9817 14.5356 76.9824 15.02V32.943C76.9824 33.0639 76.9405 33.1811 76.864 33.2747C76.7874 33.3682 76.6808 33.4324 76.5623 33.4564L45.0288 39.869C44.7904 38.7155 44.1616 37.6794 43.2482 36.9355C42.3349 36.1916 41.193 35.7854 40.0151 35.7854C38.8372 35.7854 37.6952 36.1916 36.7819 36.9355C35.8686 37.6794 35.2397 38.7155 35.0014 39.869L3.46648 33.4564C3.34822 33.4322 3.24197 33.3678 3.16567 33.2743C3.08937 33.1807 3.04771 33.0637 3.04772 32.943V15.02Z" fill="white" fill-opacity="0.24"/>
<path d="M40.0149 39.1443C39.6657 39.1443 39.3244 39.2479 39.0341 39.4418C38.7438 39.6358 38.5175 39.9115 38.3839 40.2341C38.2503 40.5567 38.2153 40.9117 38.2834 41.2541C38.3516 41.5966 38.5197 41.9111 38.7666 42.158C39.0135 42.4049 39.328 42.5731 39.6705 42.6412C40.0129 42.7093 40.3679 42.6743 40.6905 42.5407C41.0131 42.4071 41.2888 42.1808 41.4828 41.8905C41.6768 41.6002 41.7803 41.2589 41.7803 40.9097C41.7803 40.4415 41.5943 39.9925 41.2632 39.6614C40.9322 39.3303 40.4831 39.1443 40.0149 39.1443Z" fill="white" fill-opacity="0.24"/>
<path d="M29.0696 24.6918H50.9605C51.2883 24.6918 51.6026 24.5616 51.8344 24.3298C52.0661 24.0981 52.1963 23.7838 52.1963 23.456V19.1273C52.1963 18.7995 52.0661 18.4852 51.8344 18.2534C51.6026 18.0217 51.2883 17.8915 50.9605 17.8915H29.0696C28.7419 17.8915 28.4276 18.0217 28.1958 18.2534C27.9641 18.4852 27.8339 18.7995 27.8339 19.1273V23.456C27.8339 23.7838 27.9641 24.0981 28.1958 24.3298C28.4276 24.5616 28.7419 24.6918 29.0696 24.6918ZM30.3054 20.363H49.7248V22.2202H30.3054V20.363Z" fill="white" fill-opacity="0.24"/>
</svg>
