<svg width="44" height="58" viewBox="0 0 44 58" fill="none" xmlns="http://www.w3.org/2000/svg">
<path d="M0.386719 7.5109V56.2932C0.386719 56.8113 0.807963 57.2314 1.32764 57.2314H37.0787C37.598 57.2314 38.0193 56.8113 38.0193 56.2932V16.8924C38.0193 16.8715 38.0092 16.8537 38.0073 16.8332C38.0026 16.7509 37.9863 16.6698 37.9592 16.5921C37.9487 16.562 37.9414 16.533 37.9282 16.5036C37.8825 16.4016 37.8189 16.3085 37.7399 16.2289L28.3318 6.8478C28.252 6.76859 28.1582 6.70521 28.0551 6.66C28.0268 6.64802 27.9982 6.63798 27.9687 6.62909C27.89 6.60204 27.8083 6.58581 27.7249 6.5804C27.7091 6.58311 27.6905 6.57306 27.6707 6.57306H1.32764C0.807963 6.57306 0.386719 6.99271 0.386719 7.5109ZM34.8074 15.9541H28.6112V9.7757L34.8074 15.9541ZM2.26817 8.44912H26.7298V16.8924C26.7298 17.4102 27.151 17.8302 27.6703 17.8302H36.1378V55.3553H2.26817V8.44912Z" fill="white" fill-opacity="0.24"/>
<path d="M39.9004 49.7261V51.6021H42.7228C43.2424 51.6021 43.6637 51.1825 43.6637 50.6643V1.88207C43.6637 1.36388 43.2424 0.943848 42.7228 0.943848H6.97168C6.45201 0.943848 6.03076 1.36388 6.03076 1.88207V4.69636H7.9126V2.81991H41.7818V49.7261H39.9004Z" fill="white" fill-opacity="0.24"/>
<path d="M7.91248 19.7064H30.4918V21.5824H7.91248V19.7064Z" fill="white" fill-opacity="0.24"/>
<path d="M7.91248 14.0774H15.4391V15.9539H7.91248V14.0774Z" fill="white" fill-opacity="0.24"/>
<path d="M7.91248 25.335H22.9656V27.2114H7.91248V25.335Z" fill="white" fill-opacity="0.24"/>
<path d="M24.8475 25.335H30.4923V27.2114H24.8475V25.335Z" fill="white" fill-opacity="0.24"/>
<path d="M7.91248 30.9636H30.4918V32.8401H7.91248V30.9636Z" fill="white" fill-opacity="0.24"/>
<path d="M7.91248 42.2209H30.4918V44.0973H7.91248V42.2209Z" fill="white" fill-opacity="0.24"/>
<path d="M16.3802 36.5923H30.4925V38.4683H16.3802V36.5923Z" fill="white" fill-opacity="0.24"/>
<path d="M7.91248 36.5923H14.4981V38.4683H7.91248V36.5923Z" fill="white" fill-opacity="0.24"/>
<path d="M7.91248 47.8501H11.6758V49.7262H7.91248V47.8501Z" fill="white" fill-opacity="0.24"/>
<path d="M13.5577 47.8501H30.4924V49.7262H13.5577V47.8501Z" fill="white" fill-opacity="0.24"/>
</svg>
