<svg width="64" height="63" viewBox="0 0 64 63" fill="none" xmlns="http://www.w3.org/2000/svg">
<g clip-path="url(#clip0_479_100)">
<path d="M62.5623 61.1471H56.6101V25.067C56.6101 24.563 56.198 24.1544 55.6896 24.1544H45.8715C45.3631 24.1544 44.951 24.563 44.951 25.067V61.1471H37.9557V35.7754C37.9557 35.2714 37.5436 34.8627 37.0352 34.8627H27.2171C26.7087 34.8627 26.2967 35.2714 26.2967 35.7754V61.1471H19.3013V40.6429C19.3013 40.1389 18.8893 39.7302 18.3808 39.7302H8.56276C8.05432 39.7302 7.64227 40.1389 7.64227 40.6429V61.147H1.69002C1.18158 61.147 0.769531 61.5556 0.769531 62.0596C0.769531 62.5637 1.18158 62.9723 1.69002 62.9723H62.5623C63.0708 62.9723 63.4828 62.5637 63.4828 62.0596C63.4827 61.5556 63.0708 61.1471 62.5623 61.1471ZM17.4603 61.1471H9.48313V41.5556H17.4603V61.1471ZM36.1148 61.1471H28.1376V36.6881H36.1148V61.1471ZM54.7692 61.1471H46.792V25.9797H54.7692V61.1471Z" fill="white" fill-opacity="0.24"/>
<path d="M60.5442 1.50646C59.9238 0.96346 59.0981 0.710482 58.2775 0.812742L50.423 1.78628C48.8637 1.9795 47.7239 3.43069 47.919 4.97832C48.1161 6.54221 49.5591 7.65675 51.1384 7.46122L51.7793 7.38191C42.1389 18.4648 30.6782 24.1926 22.5796 27.0712C12.4817 30.6606 4.62206 30.9676 4.5455 30.9702C2.9577 31.0194 1.70491 32.3404 1.75292 33.915C1.80045 35.47 3.0661 36.688 4.63455 36.688C4.6637 36.688 4.69298 36.6876 4.72299 36.6867C5.07244 36.6762 13.4041 36.3845 24.3808 32.5064C30.5514 30.3261 36.3578 27.4319 41.6383 23.9042C42.0599 23.6227 42.1714 23.0552 41.8872 22.6373C41.6033 22.2192 41.0313 22.1088 40.6096 22.3904C35.4568 25.833 29.7887 28.658 23.7628 30.787C13.0559 34.5698 5.00458 34.8521 4.66787 34.8621L4.63455 34.8626C4.06768 34.8626 3.61007 34.4221 3.59292 33.8597C3.57553 33.2901 4.02873 32.8123 4.60344 32.7945C4.68379 32.7919 12.7677 32.4978 23.2009 28.7893C31.9414 25.6825 44.5005 19.3389 54.6954 6.76118C55.203 6.13499 54.6664 5.18417 53.864 5.28388L50.9106 5.64993C50.3986 5.71272 49.9013 5.38007 49.7713 4.88431C49.6151 4.28776 50.0354 3.67371 50.6515 3.5972L58.5063 2.62367C59.1195 2.54679 59.6786 3.03829 59.6786 3.65003V11.4379C59.6786 12.0083 59.2107 12.4723 58.6354 12.4723C58.06 12.4723 57.5921 12.0084 57.5921 11.4379V9.07697C57.5921 8.704 57.3489 8.3552 56.9971 8.22343C56.6337 8.08729 56.2042 8.20157 55.9585 8.49985C52.5207 12.6766 48.6063 16.4561 44.3237 19.7333C43.9214 20.0413 43.8468 20.6144 44.1574 21.0134C44.468 21.4125 45.0463 21.4862 45.4485 21.1784C49.1789 18.3237 52.6367 15.0979 55.7542 11.5668C55.8223 13.0841 57.0886 14.2978 58.6355 14.2978C60.2257 14.2978 61.5196 13.0149 61.5196 11.4382V3.65027C61.5194 2.83049 61.164 2.04897 60.5442 1.50646Z" fill="white" fill-opacity="0.24"/>
</g>
<defs>
<clipPath id="clip0_479_100">
<rect width="62.7133" height="62.1818" fill="white" transform="translate(0.769531 0.790527)"/>
</clipPath>
</defs>
</svg>
