<svg width="36" height="36" viewBox="0 0 36 36" fill="none" xmlns="http://www.w3.org/2000/svg">
<path d="M21.9844 18.2344V14.7656C21.9844 14.0167 22.5948 13.4062 23.3438 13.4062H27.5625H28.3125V12.6562V8.4375V7.6875H27.5625H22.2891C18.967 7.6875 16.2656 10.3889 16.2656 13.7109V18.2344H12.7969H12.0469V18.9844V23.2031V23.9531H12.7969H16.2656V35.25H5.27344C2.77984 35.25 0.75 33.2202 0.75 30.7266V5.27344C0.75 2.77984 2.77984 0.75 5.27344 0.75H30.7266C33.2202 0.75 35.25 2.77984 35.25 5.27344V30.7266C35.25 33.2202 33.2202 35.25 30.7266 35.25H21.9844V23.9531H26.669H27.3044L27.4088 23.3264L28.112 19.1077L28.2575 18.2344H27.3722H21.9844Z" stroke="#F9F9F9" stroke-width="1.5"/>
</svg>
