<svg width="36" height="36" viewBox="0 0 36 36" fill="none" xmlns="http://www.w3.org/2000/svg">
<mask id="path-1-inside-1_516_576" fill="white">
<path d="M26.2551 0H9.74485C4.37145 0 0 4.37145 0 9.74485V26.2554C0 31.6285 4.37145 35.9999 9.74485 35.9999H26.2554C31.6285 35.9999 35.9999 31.6285 35.9999 26.2554V9.74485C35.9999 4.37145 31.6285 0 26.2551 0Z"/>
</mask>
<path d="M26.2551 -1.5H9.74485V1.5H26.2551V-1.5ZM9.74485 -1.5C3.54302 -1.5 -1.5 3.54302 -1.5 9.74485H1.5C1.5 5.19988 5.19988 1.5 9.74485 1.5V-1.5ZM-1.5 9.74485V26.2554H1.5V9.74485H-1.5ZM-1.5 26.2554C-1.5 32.4569 3.54305 37.4999 9.74485 37.4999V34.4999C5.19985 34.4999 1.5 30.8 1.5 26.2554H-1.5ZM9.74485 37.4999H26.2554V34.4999H9.74485V37.4999ZM26.2554 37.4999C32.4569 37.4999 37.4999 32.4569 37.4999 26.2554H34.4999C34.4999 30.8001 30.8001 34.4999 26.2554 34.4999V37.4999ZM37.4999 26.2554V9.74485H34.4999V26.2554H37.4999ZM37.4999 9.74485C37.4999 3.54303 32.4569 -1.5 26.2551 -1.5V1.5C30.8001 1.5 34.4999 5.19988 34.4999 9.74485H37.4999Z" fill="#F9F9F9" mask="url(#path-1-inside-1_516_576)"/>
<path d="M8.90625 17.9997C8.90625 12.9861 12.9861 8.90625 17.9997 8.90625C23.0133 8.90625 27.0932 12.9861 27.0932 17.9997C27.0932 23.0133 23.0133 27.0932 17.9997 27.0932C12.9861 27.0932 8.90625 23.0133 8.90625 17.9997Z" stroke="#F9F9F9" stroke-width="1.5"/>
<path d="M25.9204 7.56976C25.9204 6.3802 26.8893 5.41113 28.079 5.41113C29.2689 5.41113 30.2379 6.38006 30.2379 7.56976C30.2379 8.75955 29.2688 9.72866 28.079 9.72866C26.8893 9.72866 25.9204 8.75964 25.9204 7.56976Z" stroke="#F9F9F9" stroke-width="1.5"/>
</svg>
